HIERARCHY
ROOT Hips
{
	OFFSET 0.00000 0.00000 0.00000
	CHANNELS 6 Xposition Yposition Zposition Zrotation Yrotation Xrotation 
	JOINT LHipJoint
	{
		OFFSET 0 0 0
		CHANNELS 3 Zrotation Yrotation Xrotation
		JOINT LeftHip
		{
			OFFSET 1.56857 -1.73443 1.15205
			CHANNELS 3 Zrotation Yrotation Xrotation
			JOINT LeftKnee
			{
				OFFSET 2.39362 -6.57643 0.00000
				CHANNELS 3 Zrotation Yrotation Xrotation
				JOINT LeftAnkle
				{
					OFFSET 2.50952 -6.89485 0.00000
					CHANNELS 3 Zrotation Yrotation Xrotation
					JOINT LeftToe
					{
						OFFSET 0.17171 -0.47178 1.88682
						CHANNELS 3 Zrotation Yrotation Xrotation
						End Site
						{
							OFFSET 0.00000 -0.00000 0.98146
						}
					}
				}
			}
		}
	}
	JOINT RHipJoint
	{
		OFFSET 0 0 0
		CHANNELS 3 Zrotation Yrotation Xrotation
		JOINT RightHip
		{
			OFFSET -1.28153 -1.73443 1.15205
			CHANNELS 3 Zrotation Yrotation Xrotation
			JOINT RightKnee
			{
				OFFSET -2.26861 -6.23296 0.00000
				CHANNELS 3 Zrotation Yrotation Xrotation
				JOINT RightAnkle
				{
					OFFSET -2.54143 -6.98254 0.00000
					CHANNELS 3 Zrotation Yrotation Xrotation
					JOINT RightToe
					{
						OFFSET -0.23309 -0.64041 1.93119
						CHANNELS 3 Zrotation Yrotation Xrotation
						End Site
						{
							OFFSET -0.00000 -0.00000 1.02013
						}
					}
				}
			}
		}
	}
	JOINT lowerback
	{
		OFFSET 0 0 0
		CHANNELS 3 Zrotation Yrotation Xrotation
		JOINT Chest
		{
			OFFSET -0.07096 2.10460 -0.27878
			CHANNELS 3 Zrotation Yrotation Xrotation
			JOINT Chest2
			{
				OFFSET -0.00826 2.13662 -0.08279
				CHANNELS 3 Zrotation Yrotation Xrotation
				JOINT lowerneck
				{
					OFFSET 0 0 0
					CHANNELS 3 Zrotation Yrotation Xrotation
					JOINT Neck
					{
						OFFSET 0.03239 1.77799 0.24435
						CHANNELS 3 Zrotation Yrotation Xrotation
						JOINT Head
						{
							OFFSET 0.01026 1.74194 -0.49664
							CHANNELS 3 Zrotation Yrotation Xrotation
							End Site
							{
								OFFSET 0.00170 1.83057 -0.19653
							}
						}
					}
				}
				JOINT LeftCollar
				{
					OFFSET 0 0 0
					CHANNELS 3 Zrotation Yrotation Xrotation
					JOINT LeftShoulder
					{
						OFFSET 3.19178 1.35907 -0.31412
CHANNELS 3 Zrotation Xrotation Yrotation
						JOINT LeftElbow
						{
OFFSET 0 -4.852470 -0.000000
CHANNELS 3 Zrotation Xrotation Yrotation
							JOINT LeftWrist
							{
OFFSET 0 -3.555840 0.000000
CHANNELS 3 Zrotation Xrotation Yrotation
								JOINT lhand
								{
									OFFSET 0 0 0
CHANNELS 3 Zrotation Xrotation Yrotation
									JOINT LFingers
									{
OFFSET 0 -0.693200 0.000000
CHANNELS 3 Zrotation Xrotation Yrotation
										End Site
										{
OFFSET 0 -0.558880 0.000000
										}
									}
								}
								JOINT LThumb
								{
OFFSET 0 0.000000 0.000000
CHANNELS 3 Zrotation Xrotation Yrotation
									End Site
									{
OFFSET 0 -0.567410 0.567410
									}
								}
							}
						}
					}
				}
				JOINT RightCollar
				{
					OFFSET 0 0 0
					CHANNELS 3 Zrotation Yrotation Xrotation
					JOINT RightShoulder
					{
						OFFSET -3.28999 1.24191 -0.26899
CHANNELS 3 Zrotation Xrotation Yrotation
						JOINT RightElbow
						{
OFFSET 0 -4.644620 0.000000
CHANNELS 3 Zrotation Xrotation Yrotation
							JOINT RightWrist
							{
OFFSET 0 -3.407030 0.000000
CHANNELS 3 Zrotation Xrotation Yrotation
								JOINT rhand
								{
									OFFSET 0 0 0
CHANNELS 3 Zrotation Xrotation Yrotation
									JOINT RFingers
									{
OFFSET 0 -0.619580 0.000000
CHANNELS 3 Zrotation Xrotation Yrotation
										End Site
										{
OFFSET 0 -0.499520 0.000000
										}
									}
								}
								JOINT RThumb
								{
OFFSET 0 0.000000 0.000000
CHANNELS 3 Zrotation Xrotation Yrotation
									End Site
									{
OFFSET 0 -0.507150 0.507150
									}
								}
							}
						}
					}
				}
			}
		}
	}
}
MOTION
Frames: 8
Frame Time: .0083333
-28.7674 17.1236 1.0238 14.4842 87.1217 15.9595 0.0000 0.0000 0.0000 -15.6852 3.0170 9.2253 0.0124 -0.7176 -1.9721 0.2723 2.7951 -11.2923 0.0000 0.0000 0.0000 0.0000 0.0000 0.0000 14.1015 -6.9443 6.2194 -0.0073 -0.5525 1.5181 -0.8126 -0.4284 -17.1960 -0.0125 -0.7210 1.9814 -3.5220 1.7060 3.8930 -0.5339 2.1613 1.4789 1.3259 1.0847 -0.7705 4.6424 2.0447 -22.2465 0.2396 1.3829 25.3106 -0.4367 1.1956 12.0750 -0.0000 -0.0000 0.0000 4.6176 4.8946 -38.547 20.7869 -31.5787 5.9379 -0.0 6.2652 0.0 0.0 0.0 0.0 -0.0000 -0.0 -0.0 -0.0000 0.0 -0.0 -0.0000 -0.0000 0.0000 -90.0 0.0 -0.0 0.0000 0.0 -0.0 0.0 0.0 -0.0 0.0 0.0 0.0 0.0000 -0.0 0.0 0.0000 0.0 0.0
-28.7668 17.1276 1.0238 14.9415 87.0801 16.3262 0.0000 0.0000 0.0000 -16.0602 2.0472 9.9423 0.0175 -0.8553 -2.3508 0.2691 3.7603 -11.9211 0.0000 0.0000 0.0000 0.0000 0.0000 0.0000 14.0407 -6.9888 6.3300 -0.0070 -0.5419 1.4891 -0.8231 -0.3741 -17.2855 -0.0071 -0.5431 1.4924 -3.4893 1.7566 4.0111 -0.5616 2.2251 1.4827 1.2723 1.1179 -0.8333 4.6599 2.0036 -22.1625 0.0460 1.3808 25.2820 -0.5138 1.1695 12.0479 -0.0000 0.0000 0.0000 4.6124 4.8239 -38.5707 20.7008 -31.4775 5.8929 -0.0 6.3979 0.0 0.0 0.0 0.0 -0.0000 -0.0 -0.0 -0.0000 0.0 -0.0 -0.0000 0.0000 0.0000 -90.0 0.0 -0.0 0.0000 0.0 -0.0 0.0 0.0 -0.0 0.0 0.0 0.0 0.0000 -0.0 0.0 0.0000 0.0 0.0
-28.7673 17.1272 1.0244 14.7747 87.0752 16.1601 0.0000 0.0000 0.0000 -16.1588 1.7054 10.1652 0.0200 -0.9137 -2.5114 0.2589 4.1294 -12.0371 0.0000 0.0000 0.0000 0.0000 0.0000 0.0000 14.0489 -7.0040 6.3180 -0.0072 -0.5481 1.5062 -0.8229 -0.4058 -17.2948 -0.0059 -0.4972 1.3662 -3.4757 1.7699 4.0375 -0.5611 2.2413 1.4588 1.2631 1.1267 -0.8730 4.7405 1.9943 -22.1615 -0.0602 1.3707 25.3140 -0.5688 1.1594 12.0613 0.0000 -0.0000 0.0000 4.6595 4.9128 -38.6866 20.7635 -31.5513 5.9257 -0.0 6.3349 0.0 0.0 0.0 0.0 -0.0000 -0.0 -0.0 -0.0000 0.0 -0.0 0.0000 -0.0000 0.0000 -90.0 0.0 -0.0 0.0000 0.0 -0.0 0.0 0.0 -0.0 0.0 0.0 0.0 0.0000 -0.0 0.0 0.0000 0.0 0.0
-28.7673 17.1257 1.0253 14.6428 87.1166 16.0504 0.0000 0.0000 0.0000 -16.0756 1.8439 10.0286 0.0185 -0.8776 -2.4121 0.2580 3.9239 -11.8602 0.0000 0.0000 0.0000 0.0000 0.0000 0.0000 14.0975 -6.9691 6.3231 -0.0071 -0.5422 1.4900 -0.8226 -0.4732 -17.3179 -0.0051 -0.4628 1.2718 -3.5130 1.7478 4.0641 -0.5229 2.2076 1.4125 1.3230 1.1108 -0.9366 4.6997 2.0126 -21.9924 -0.0354 1.4162 25.2455 -0.5464 1.1786 12.0019 -0.0000 0.0000 0.0000 4.6004 5.021 -38.6492 20.7953 -31.5886 5.9423 -0.0 6.3403 0.0 0.0 0.0 0.0 -0.0000 -0.0 -0.0 -0.0000 0.0 -0.0 -0.0000 0.0000 0.0000 -90.0 0.0 -0.0 0.0000 0.0 -0.0 0.0 0.0 -0.0 0.0 0.0 0.0 0.0000 -0.0 0.0 0.0000 0.0 0.0
-28.7672 17.1250 1.0267 15.3245 87.0962 16.7345 0.0000 0.0000 0.0000 -15.8681 2.5980 9.5719 0.0144 -0.7736 -2.1261 0.2683 3.1951 -11.4956 1.1347 -6.7651 -19.0213 0.0000 0.0000 0.0000 14.0113 -7.0588 6.2266 -0.0081 -0.5829 1.6017 -0.8256 -0.2806 -17.2770 -0.0082 -0.5842 1.6053 -3.5365 1.7464 3.9999 -0.5545 2.2095 1.4623 1.3067 1.1103 -0.8494 4.6266 2.0012 -22.0583 0.1419 1.3676 25.1992 -0.4754 1.1722 11.9940 0.0000 -0.0000 0.0000 4.5512 4.89 -38.3427 20.7142 -31.4933 5.8999 -0.0 6.4752 0.0 0.0 0.0 0.0 -0.0000 -0.0 -0.0 -0.0000 0.0 -0.0 0.0000 -0.0000 0.0000 -90.0 0.0 -0.0 0.0000 0.0 -0.0 0.0 0.0 -0.0 0.0 0.0 0.0 0.0000 -0.0 0.0 0.0000 0.0 0.0
-28.7673 17.1236 1.0290 15.5843 87.0307 16.9897 0.0000 0.0000 0.0000 -15.7823 2.9629 9.4161 0.0136 -0.7524 -2.0677 0.2696 2.9316 -11.3368 1.1652 -6.8525 -19.2790 0.0000 0.0000 0.0000 13.8724 -7.2887 6.0006 -0.0110 -0.6763 1.8586 -0.8296 0.1010 -17.1836 -0.0097 -0.6365 1.7492 -3.5259 1.7645 3.9151 -0.6072 2.2408 1.5440 1.2496 1.1238 -0.7170 4.7994 2.0615 -22.1571 -0.0255 1.4349 25.2901 -0.5548 1.1979 12.0537 0.0000 -0.0000 0.0000 4.4848 -1.0961 -40.9925 14.0091 -22.7477 2.8316 17.6628 -3.7829 22.4482 0.0 0.0 0.0 -7.1250 0.0 0.0 -7.0484 6.6863 -6.2283 0.0000 -0.0000 0.0000 -3.0988 5.5855 35.0355 -18.4666 -28.7505 -4.7715 -14.486 7.3576 28.9082 0.0 0.0 0.0 7.1250 0.0 -0.0 18.4396 58.7159 -6.3195
-28.7678 17.1210 1.0311 15.3340 87.0579 16.7732 0.0000 0.0000 0.0000 -15.7710 2.8346 9.4694 0.0146 -0.7804 -2.1446 0.2673 3.0133 -11.3528 1.0996 -6.6633 -18.7216 0.0000 0.0000 0.0000 13.8653 -7.3956 5.8680 -0.0123 -0.7157 1.9670 -0.8301 0.2068 -17.1533 -0.0094 -0.6262 1.7209 -3.6607 1.7194 4.3375 -0.5042 2.1434 1.1868 1.4151 1.0863 -1.3243 4.9890 2.1741 -21.9665 -0.1674 1.5982 25.6702 -0.6117 1.2829 12.1731 0.0000 -0.0000 0.0000 4.3717 -0.396 -41.91 15.0766 -24.2528 3.2574 14.9328 -3.6782 16.9065 0.0 0.0 0.0 -7.1250 0.0 0.0 -8.5699 12.6622 -6.5584 0.0000 -0.0000 0.0000 -3.2891 6.133 35.2946 -18.3927 -28.6571 -4.7361 -14.9318 7.8544 28.5578 0.0 0.0 0.0 7.1250 0.0 -0.0 17.7361 58.4819 -5.9681
-28.7679 17.1210 1.0314 17.3776 87.0976 18.8491 0.0000 0.0000 0.0000 -15.7903 3.0748 9.2445 0.0129 -0.7343 -2.0180 0.2709 2.7071 -11.2102 1.0990 -6.6614 -18.7161 0.0000 0.0000 0.0000 13.7554 -7.4391 5.8409 -0.0119 -0.7043 1.9356 -0.8273 0.1681 -17.1370 -0.0107 -0.6679 1.8354 -3.8035 1.7038 4.2438 -0.4908 2.1228 1.2317 1.5136 1.0744 -1.2302 5.0511 2.2164 -22.0363 -0.1983 1.6408 25.7131 -0.6259 1.3043 12.2062 -0.0000 0.0000 0.0000 4.2592 -0.5903 -41.1899 14.9885 -24.1301 3.2213 13.5678 -3.7933 18.0989 0.0 0.0 0.0 -7.1250 0.0 0.0 -9.4905 11.5897 -7.4965 -0.0000 0.0000 0.0000 -3.3614 6.0316 35.3478 -18.3481 -28.6006 -4.7147 -15.0407 7.8303 28.4443 0.0 0.0 0.0 7.1250 0.0 -0.0 17.5469 58.3978 -5.8661
